<?xml version="1.0" encoding="UTF-8"?>
<svg id="Layer_1" xmlns="http://www.w3.org/2000/svg" version="1.1" viewBox="0 0 100 100">
  <!-- Generator: Adobe Illustrator 30.1.0, SVG Export Plug-In . SVG Version: 2.1.1 Build 136)  -->
  <defs>
    <style>
      .st0 {
        fill: #fff;
      }
    </style>
  </defs>
  <g>
    <path class="st0" d="M68.83,75.84h-10.53l-.14-.09c-.25-.15-.58-.41-.99-.73-1.8-1.41-5.17-4.04-9.56-4.04s-7.76,2.63-9.57,4.04c-.41.32-.74.58-.99.73l-.14.09h-10.79v-4.99l.52-.03c.39-.02,9.63-.7,9.63-10.49,0-4.52-1.09-7.83-3.23-9.83-2.3-2.15-5.02-1.99-5.05-1.99h-7.69v-4.9h48.51v2.07h18.48l-.05.6c-.03.29-.87,7.05-21.79,12.61-3.74,1.17-3.73,5.62-3.73,5.66,0,.07-.15,2.59,1.5,4.36,1.12,1.2,2.81,1.8,5.04,1.8h.55v5.12h.02ZM58.63,74.73h9.1v-2.92c-2.29-.1-4.07-.82-5.31-2.15-1.98-2.13-1.79-5.02-1.78-5.14,0,0-.02-5.27,4.53-6.69,16.34-4.33,19.99-9.32,20.79-11.03h-18.22v-2.07H21.43v2.68h6.54c.09,0,3.2-.19,5.85,2.29,2.37,2.22,3.58,5.8,3.58,10.64,0,9.44-8.01,11.23-10.15,11.53v2.87h9.35c.21-.14.46-.34.77-.58,1.92-1.49,5.48-4.27,10.25-4.27s8.33,2.78,10.24,4.27c.31.24.56.44.77.58h0Z"/>
    <path class="st0" d="M57.97,75.54c-.05-.09-4.74-9.04-10.36-9.04s-10.31,8.95-10.36,9.04l-.99-.51c.2-.39,5.05-9.64,11.35-9.64s11.14,9.25,11.35,9.64c0,0-.99.51-.99.51Z"/>
  </g>
  <path class="st0" d="M66.36,38.24c-.53,0-.92-.04-1.17-.14-.27-.08-.53-.33-.56-.71-.02-.19-.05-2.41-.06-3.29-.15-.03-.42-.07-.86-.1-1.36-.09-11.11-.4-15.16.11l-.41.15c-.24.02-5.81.37-8.9.28-3.15-.09-9.02.09-9.58.22-.15.03-.45.07-.76-.19-.43-.36-.65-1.11-.65-2.29-.01-.3-.03-1.94.93-2.48l.14-.08h.16c.07.01,7.01.36,9.79.19,2.83-.18,8.61,0,8.86,0h.19l.22.18c1.54.04,12.19.3,15.14-.22.25-.04.63-.11.91-.18l.84-4.92.14-.13c.1-.09.64-.55,1.25-.47l.38.04,1.54,5.82.23,7.56-.11.15c-.15.2-.48.44-.92.44-.06,0-.18,0-.34.02-.47.02-.88.04-1.22.04h-.02ZM65.72,37.1c.27.04.88.04,1.8,0,.12,0,.23,0,.3,0l-.21-6.95-1.21-4.55-.84,4.92-.27.12c-.46.2-1.35.34-1.45.35-3.26.58-15.04.24-15.54.23h-.19l-.22-.18c-1.03-.03-6.07-.15-8.57,0-2.6.16-8.48-.11-9.7-.17-.18.25-.29.89-.27,1.41,0,.89.13,1.26.2,1.39,1.17-.18,7.18-.29,9.71-.22,2.82.08,7.89-.22,8.69-.27l.36-.14c4.08-.53,14.07-.22,15.46-.13,1.21.08,1.7.25,1.86.66l.13.32-.1.13c.02,1.06.04,2.54.06,3.09Z"/>
</svg>